<svg xmlns="http://www.w3.org/2000/svg" width="48" height="30" viewBox="0 0 48 30">
    <g fill="none" fill-rule="evenodd">
        <rect width="48" height="30" fill="#55ACEE" rx="15"/>
        <path fill="#FFF" fill-rule="nonzero" d="M32 10.24c-.589.257-1.222.431-1.885.509.677-.401 1.198-1.036 1.443-1.793-.634.372-1.337.641-2.084.786-.6-.63-1.452-1.023-2.397-1.023-1.813 0-3.283 1.452-3.283 3.241 0 .255.03.502.086.74-2.728-.136-5.147-1.426-6.766-3.388-.283.479-.445 1.036-.445 1.63 0 1.124.58 2.117 1.46 2.698-.538-.017-1.044-.163-1.486-.406v.041c0 1.57 1.131 2.88 2.633 3.178-.275.075-.566.114-.865.114-.212 0-.417-.02-.618-.058.418 1.288 1.63 2.225 3.067 2.251-1.124.87-2.539 1.388-4.077 1.388-.265 0-.527-.016-.783-.046 1.452.92 3.178 1.457 5.031 1.457 6.038 0 9.34-4.94 9.34-9.223 0-.14-.003-.28-.01-.42.643-.456 1.2-1.027 1.639-1.677z"/>
    </g>
</svg>
