<svg xmlns="http://www.w3.org/2000/svg" width="48" height="30" viewBox="0 0 48 30">
    <g fill="none" fill-rule="evenodd">
        <rect width="48" height="30" fill="#007AB9" rx="15"/>
        <path fill="#FFF" fill-rule="nonzero" d="M31.636 16.583V22H28.5v-5.054c0-1.27-.453-2.136-1.59-2.136-.866 0-1.381.584-1.609 1.148-.083.202-.104.483-.104.766V22h-3.138s.042-8.56 0-9.447h3.138v1.34c-.006.01-.015.02-.02.03h.02v-.03c.417-.643 1.161-1.561 2.828-1.561 2.065 0 3.612 1.35 3.612 4.25zM18.776 8C17.702 8 17 8.705 17 9.632c0 .907.682 1.632 1.734 1.632h.02c1.095 0 1.776-.725 1.776-1.632C20.509 8.705 19.85 8 18.776 8zm-1.59 14h3.137v-9.447h-3.137V22z"/>
    </g>
</svg>
