<svg xmlns="http://www.w3.org/2000/svg" width="15" height="10" viewBox="0 0 15 10">
    <path fill="#FFF" fill-rule="evenodd" d="M.194 1.043C.5.426 1.137 0 1.875 0h11.25c.738 0 1.375.426 1.68 1.043.125.251.195.534.195.832v6.25C15 9.161 14.16 10 13.125 10H1.875C.839 10 0 9.16 0 8.125v-6.25c0-.298.07-.58.194-.832zm1.736.207L7.2 4.125c.188.102.412.102.6 0l5.27-2.875H1.93zm11.82 1.053L8.398 5.222c-.56.305-1.236.305-1.796 0L1.25 2.303v5.822c0 .345.28.625.625.625h11.25c.345 0 .625-.28.625-.625V2.303z"/>
</svg>
